<svg width="311" height="319" fill="none" xmlns="http://www.w3.org/2000/svg"><g clip-path="url(#a)"><path d="M279.641 207.071c-26.293 63.074-96.331 98.408-157.067 88.877-9.883-1.552-36.979-6.171-60.967-27.967C15.427 226.028 5.55 142.944 42.803 84.394c27.113-42.613 74.245-62.915 120.429-61.707 9.948.26 49.539-1.99 83.044 26.156 4.921 4.134 15.774 13.958 25.56 29.543 22.966 36.596 24.94 87.58 7.805 128.685Z" fill="#F0ECE6"/><path d="M220.231 294.985a1.552 1.552 0 0 0-.055-.47c-2.667-9.296-15.906-15.085-15.906-15.085l-5.246.362c-3.017 8.192-2.629 13.216-2.145 15.454.014.063.036.123.054.184 4.328.338 13.235.562 23.298-.445Z" fill="#0A0A0A"/><path d="M196.933 295.43c.12.377.338.714.631.974.294.26.651.434 1.034.504 6.156 1.137 15.941.221 20.049-.251.906-.1 1.567-.84 1.584-1.672-10.063 1.007-18.97.783-23.298.445Z" fill="#262626"/><path d="m196.987 273.363 2.222 9.402c.087.344.279.651.547.878.268.227.6.362.948.386a16.78 16.78 0 0 0 3.442-.048c1.146-.148 1.945-1.172 1.741-2.271l-1.544-8.347h-7.356Z" fill="#FFC444"/><path d="M242.951 295.335c-5.794-.142-8.791-.742-10.34-1.297 0 .507 0 1.022.018 1.556.016.281.139.546.343.737.204.191.473.293.749.285l31.813-.18c1.015-.006 1.608-1.041 1.168-1.859-4.171.301-14.794.979-23.751.758Z" fill="#262626"/><path d="M266.702 294.571a1.252 1.252 0 0 0-.126-.211c-2.809-3.451-9.965-10.321-24.105-13.301l-6.783-.189s-3.02 4.615-3.077 13.162c1.549.557 4.546 1.156 10.34 1.297 8.957.227 19.58-.451 23.751-.758Z" fill="#0A0A0A"/><path d="M234.431 271.839c.075.444 1.004 7.199 1.365 9.818.048.309.198.592.423.804.226.213.515.342.821.367 1.156.122 3.025.232 4.66-.063.881-.159 1.521-.904 1.521-1.77v-10.603l-8.79 1.447Z" fill="url(#b)"/><path d="M228.989 148.573s16.36 54.649 16.06 123.417c-.005 1.254-1.006 2.336-2.402 2.594-2.056.38-5.081.833-7.585.771-1.335-.033-2.453-.904-2.678-2.062-2.293-11.825-13.246-79.788-20.746-90.603 0 0-7.149 60.678-5.57 91.459.039.765-.599 1.43-1.469 1.517a31.611 31.611 0 0 1-6.09-.015c-1.014-.094-1.834-.769-1.979-1.657-1.627-10.001-11.029-69.569-10.63-112.48.023-2.421 7.281-12.941 7.281-12.941h35.808Z" fill="#0A0A0A"/><path d="M175.158 70.964c20.351-12.908 50.996-6.374 62.85-5.062 3.886.43 7.442 2.115 10.002 4.72 10.157 10.332 35.344 50.756-5.456 70.693-2.719-2.015-3.44-7.734-5.856-12.308 5.836-7.501 9.296-14.949 3.213-26.219a23.986 23.986 0 0 1-.777 2.648c-8.384 23.347-8.832 42.773-8.814 47.251 0 .608-.412 1.155-1.055 1.381-11.033 3.891-32.273 1.573-39.403.639-1.308-.17-2.187-1.241-2.007-2.394 3.5-22.283-14.459-58.94-19.202-68.121-.341-.658 3.823-7.84 6.505-13.228Z" fill="#95AE45"/><path d="m201.767 47.65-2.306 16.469a2.864 2.864 0 0 0 2.323 3.21c3.154.6 8.6 1.113 13.628-.961 1.557-.643 2.401-2.315 1.959-3.906l-3.695-20.612-11.909 5.8Z" fill="#FFC444"/><path d="M190.539 31.362c-.126.362.304 24.544.304 24.544l14.768-2.276 3.236-23.408s-16.197-4.92-18.308 1.14Z" fill="url(#c)"/><path d="M203.912 33.854a1.713 1.713 0 0 1 .732 1.526l-.68 12.149c-.01.187-.047.371-.109.548-.354.997-1.74 4.117-4.951 3.006-2.742-.948-5.271-1.781-7.289-1.526-1.176.149-2.113 1.183-2.088 2.284.049 2.268.248 6.83 1.035 10.786.196.992 1.204 1.568 2.3 1.332 2.893-.622 8.52-1.995 13.004-4.059.737-.339 1.263-1.01 1.371-1.75.49-3.255 1.907-12.38 2.723-14.946.757-2.386 4.039-3.682 5.582-4.168a2.51 2.51 0 0 0 1.394-1.097c.922-1.547 2.208-4.776-1.778-6.451-.992-.416-1.322-1.58-.772-2.585.979-1.796 1.635-4.441-1.532-6.121-3.207-1.697-6.179-.2-7.979 1.188-.797.615-1.899.757-2.644.265-.333-.22-.783-.305-1.371-.07-1.117.441-2.269.043-2.607-.961-.58-1.723-2.028-3.532-5.601-3.158-6.552.684-8.586 7.389-7.681 11.436.905 4.046 8.015 2.926 11.822 1.126 2.789-1.319 5.748.296 7.119 1.246Z" fill="#0A0A0A"/><path d="M209.658 47.695s-1.243-7.154 1.773-8.72c3.016-1.565 6.814-.45 4.95 4.577-2.318 6.254-6.723 4.143-6.723 4.143Z" fill="#FFC444"/><path d="M241.027 101.042c4.447-10.697 2.834-23.615 2.817-23.745l-1.225.123c.016.127 1.595 12.796-2.751 23.246l1.159.376Z" fill="#717F34"/><path d="M151.951 134.92c-.294 7.446-.168 15.69.503 24.824l6.962.765s2.877-11.121 7.368-24.11c-6.903.627-11.847-.438-14.833-1.479Z" fill="url(#d)"/><path d="M186.399 98.539s-1.74-21.42-11.315-27.542c0 0-21.158 13.374-23.133 63.923 2.986 1.041 7.932 2.106 14.833 1.479 5.078-14.689 12.224-31.769 19.615-37.86Z" fill="#95AE45"/><path d="M156.808 157.449s4.352 1.53 5.222 7.651c.871 6.121-4.352 10.71-8.704 9.945-4.352-.765-9.017-12.241-1.027-17.596 7.99-5.355 4.509 0 4.509 0Z" fill="url(#e)"/><path d="M110.243 35.931s-6.208 4.873-14.829 8.511c-4.806 2.027-14.159 5.025-15.394 13.781-.636 4.521-4.442 8.14-9.564 8.831-12.76 1.72-32.422 7.542-35.57 27.013-2.401 14.866 6.218 20.496 15.264 22.449 6.644 1.433 11.06 7.113 9.716 13.008-1.29 5.655.632 12.193 11.779 17.36 24.977 11.585 49.92-27.444 49.92-27.444l5.112-68.144-16.434-15.364Z" fill="#0A0A0A"/><path d="M53.252 107.739a2.422 2.422 0 0 1-1.138-.35c-5.818-3.332-8.92-10.209-7.54-16.723.824-3.902 3.025-7.267 6.197-9.478 2.252-1.567 4.926-2.524 7.473-3.371a155.36 155.36 0 0 1 13.177-3.744c.366-.088.733-.172 1.1-.26 2.6-.607 5.29-1.237 7.723-2.308 3.133-1.376 5.41-3.378 6.422-5.64.629-1.403.81-2.955.985-4.456.213-1.83.433-3.725 1.474-5.34a.041.041 0 0 1 .075.014c.002.01 0 .022-.006.031-1.03 1.597-1.25 3.483-1.462 5.305-.175 1.508-.356 3.066-.99 4.482-1.022 2.28-3.319 4.297-6.464 5.682-2.441 1.074-5.133 1.704-7.737 2.314l-1.1.258a157.013 157.013 0 0 0-13.169 3.741c-2.546.845-5.213 1.796-7.453 3.362-3.155 2.195-5.343 5.543-6.163 9.424-1.37 6.478 1.717 13.318 7.504 16.632.448.257 1.31.568 1.692.1a.041.041 0 0 1 .03-.012c.01 0 .02.004.029.012a.042.042 0 0 1 .011.029.044.044 0 0 1-.011.03c-.156.187-.391.266-.659.266Z" fill="#fff"/><path d="M51.758 101.589a.04.04 0 0 1-.034-.016c-2.247-2.953-3.413-6.046-3.38-8.953.04-3.402 1.834-6.563 4.684-8.252a.042.042 0 0 1 .057.015.043.043 0 0 1 .004.032.042.042 0 0 1-.02.026c-2.824 1.673-4.602 4.808-4.642 8.181-.033 2.894 1.13 5.967 3.363 8.902.003.005.006.01.007.015a.043.043 0 0 1-.004.032.034.034 0 0 1-.01.012.052.052 0 0 1-.025.006Z" fill="#fff"/><path d="M136.786 93.949s13.926 35.193 18.278 66.56l-4.351 3.825s-13.927-39.783-24.372-51.258l10.445-19.127Z" fill="url(#f)"/><path d="m44.807 287.652-.944 6.819c-.18 1.297-1.339 2.317-2.812 2.466-2.489.249-6.481.505-10.389.142-1.714-.159-2.828-1.685-2.305-3.13.952-2.634 2.695-6.585 5.207-8.913h8.61c1.592.003 2.825 1.226 2.633 2.616Z" fill="#0A0A0A"/><path d="m112.25 207.732 1.453 7.514s-4.866 43.329-5.732 60.661c-.136 2.716.664 5.402 2.287 7.718l8.455 12.079-21.505-11.154-.431-2.307 3.525-4.255-4.611-48.54c-.27-2.851.398-5.711 1.928-8.237l4.446-7.345 10.185-6.134Z" fill="url(#g)"/><path d="M120.131 297.454h-6.863c-1.285 0-2.496-.517-3.279-1.412-2.14-2.445-6.573-7.212-8.693-7.337-2.853-.167-2.489 8.749-2.489 8.749h-1.6l-2.025-11.079c-.51-2.788 1.067-5.55 3.917-6.856 0 0 .652 4.24 4.189 6.115 3.538 1.876 14.396 8.593 14.396 8.593a11.128 11.128 0 0 1 2.789.065c2.157.344 1.864 3.162-.342 3.162Z" fill="#0A0A0A"/><path d="M82.788 211.301s-28.512 47.536-33.043 58.39c-4.532 10.854-6.12 19.907-6.18 20.764-.099 1.34-1.992 2.625-7.217 2.625-2.697 0-4.015-.95-4.665-1.869a2.393 2.393 0 0 1-.115-2.594c1.649-2.934 6.882-12.309 8.821-16.562 2.314-5.078 7.292-28.085 10.022-36.085 2.73-8 5.816-16.678 17.706-24.67 0 .001 8.161-7.022 14.67.001Z" fill="url(#h)"/><path d="M100.798 133.41c7.355-27.392-11.276-42.885-11.276-42.885 11.76-9.919 33.175-14.431 33.175-14.431s20.438 13.133 18.013 23.413c-1.42 6.025-14.365 36.09-14.365 36.09s-11.971 4.98-25.547-2.187Z" fill="#C32F27"/><path d="M84.493 146.971c2.993-7.926 16.305-13.561 16.305-13.561 13.576 7.167 25.547 2.187 25.547 2.187s2.684 9.019.832 17.401c-1.853 8.382-13.478 62.248-13.478 62.248-18.313 3.262-46.487-3.282-46.487-3.282 11.667-18.207 14.288-57.068 17.281-64.993Z" fill="#0A0A0A"/><path d="m109.336 57.992-5.98 23.607c-.573 2.08 1.584 1.739 3.976 1.343 3.917-.649 8.965-1.987 10.653-4.666.161-.271.265-.574.305-.888l2.57-16.371c.204-1.297-.596-2.56-1.959-3.093l-4.957-1.93c-1.909-.743-4.118.214-4.608 1.998Z" fill="url(#i)"/><path d="M128.171 42.474s4.545 5.912 3.594 15.905c-.951 9.993-6.335 11.539-10.493 9.628-4.158-1.91-9.851-5.544-12.665-14.127-2.815-8.582 13.487-18.845 19.564-11.407Z" fill="url(#j)"/><path d="M115.384 52.434s2.84-13.723 14.205-6.85l1.58 3.237s8.226-3.478 3.388-10.576c-4.838-7.098-14.405-9.653-22.604-3.603-8.199 6.05-12.241 10.995-9.974 17.733 2.267 6.737 7.132 3.712 7.132 3.712s-.244-5.135 2.093-6.351c2.337-1.216 3.263 2.576 3.263 2.576l.917.122Z" fill="#0A0A0A"/><path d="M113.61 54.755s1.505-7.041-3.071-6.705c-4.577.336-1.023 6.733.504 9.038l2.567-2.333Z" fill="url(#k)"/><path fill-rule="evenodd" clip-rule="evenodd" d="M143 142.619s-1.077-5.841 3.342-7.1c0 0-2.002-6.738 4.255-6.716 0 0 10.699-13.551 19.329.339 0 0 19.311 1.197 11.673 16.092 0 0 5.063 4.616-2.303 8.337 0 0-5.955 18.237-19.376 6.485L143 142.619Z" fill="#0A0A0A"/><path d="M203.979 129.481c-4.006-4.19-6.907 1.438-6.907 1.438-3.226 1.107 0 8.172 0 8.173-1.975 3.898-12.276 23.936-17.86 28.879-6.194 5.487 3.769 6.912 3.769 6.912s11.131-5.307 17.372-34.184a.543.543 0 0 0 .146-.074c.852-.662 7.487-6.951 3.48-11.144Z" fill="url(#l)"/><path d="M139.417 168.882c-5.024-4.448-14.382-23.229-17.739-30.168.608-1.465 2.619-6.84-.162-7.795 0 0-2.901-5.631-6.908-1.438-3.696 3.867 1.66 9.514 3.182 10.888 3.156 16.263 14.649 34.509 14.649 34.509s13.172-.514 6.978-5.996Z" fill="url(#m)"/><path fill-rule="evenodd" clip-rule="evenodd" d="M159.439 291.179s.899 3.398.837 5.907a.81.81 0 0 1-.199.517.779.779 0 0 1-.481.259c-2.252.317-9.936 1.255-14.158 0a.803.803 0 0 1-.562-.784c.038-1.351.972-4.519 8.683-5.328l5.88-.571Z" fill="#0A0A0A"/><path fill-rule="evenodd" clip-rule="evenodd" d="M146.171 239.214c-.949.631 6.21 51.851 7.945 52.223 0 0 1.984 1.879 5.046-.262-1.763-16.694-2.84-33.623-1.892-50.931l-11.099-1.03Z" fill="url(#n)"/><path fill-rule="evenodd" clip-rule="evenodd" d="M176.59 291.179s.898 3.398.836 5.907a.81.81 0 0 1-.199.517.776.776 0 0 1-.481.259c-2.252.317-9.936 1.255-14.157 0a.78.78 0 0 1-.412-.295.802.802 0 0 1-.15-.489c.038-1.351.971-4.519 8.682-5.328l5.881-.571Z" fill="#0A0A0A"/><path fill-rule="evenodd" clip-rule="evenodd" d="M163.318 239.214c-.95.631 6.21 51.851 7.945 52.223 0 0 1.983 1.879 5.045-.262-1.767-16.694-2.84-33.623-1.892-50.931l-11.098-1.03Z" fill="url(#o)"/><path fill-rule="evenodd" clip-rule="evenodd" d="M171.282 208.126s-23.349 1.088-28.909 3.077c0 0 .686 19.34 2.967 31.229.043.225.149.433.305.599.157.165.357.281.577.332 1.498.355 5.269.86 11.246-.845.258-.074.483-.236.637-.46.155-.223.229-.494.21-.767l-.617-7.703a.951.951 0 0 1 .226-.679.914.914 0 0 1 .63-.319l.626-.1a.905.905 0 0 1 .685.25.949.949 0 0 1 .294.678l1.175 7.812c.002.247.08.487.222.687.141.2.341.35.57.429 1.755.605 6.322 1.736 12.339-.134.237-.074.445-.222.593-.424.149-.202.23-.447.233-.699.074-9.486-1.597-20.827-4.009-32.963Z" fill="#0A0A0A"/><path fill-rule="evenodd" clip-rule="evenodd" d="M162.53 209.794s2.95 8.36 10.073 8.94l-1.575-9.534s-5.516-.042-8.498.594Z" fill="#F0ECE6"/><path fill-rule="evenodd" clip-rule="evenodd" d="M182.227 164.132s-10.553 6.911-23.367 6.144c-10.686-.641-17.178-3.419-20.788-6.549-1.292-1.121-3.127-1.303-4.553-.369a32.572 32.572 0 0 0-5.821 4.937 1.813 1.813 0 0 0-.242 2.163c3.113 5.123 6.432 8.705 9.951 10.788a7.09 7.09 0 0 1 1.783 4.897l-.65 25.166c-.01.337.099.666.306.929s.5.442.825.505c4.684.906 22.461 4.059 33.511 2.073v-27.138a5.623 5.623 0 0 1 .766-2.809 5.474 5.474 0 0 1 2.061-2.023c2.321-1.313 5.777-3.884 9.233-8.726l-3.015-9.988Z" fill="#FF9F1C"/><path fill-rule="evenodd" clip-rule="evenodd" d="m163.923 158.328 1.159 12.956s-6.713 3.997-12.488.499l1.026-11.317 10.303-2.138Z" fill="url(#p)"/><path fill-rule="evenodd" clip-rule="evenodd" d="M151.662 134.377s-20.281 15.451-8.827 26.606c10.81 10.529 20.938-.945 20.938-.945s7.746-3.913 7.456-9.199c-.29-5.286-15.472-17.809-19.567-16.462Z" fill="url(#q)"/><path fill-rule="evenodd" clip-rule="evenodd" d="M166.536 156.687c-.743-.362-1.405-.992-1.896-1.926-.731-1.391-.815-3.081-.392-4.6.108-.39.24-.832.034-1.179-.25-.416-.82-.433-1.296-.483a4.224 4.224 0 0 1-2.034-.787 4.32 4.32 0 0 1-1.39-1.705 4.426 4.426 0 0 1 .337-4.274c-1.958-.515-2.171-2.083-3.557-3.062-1.273-.898-3.109-.136-4.505-.721-1.033-.432-3.178-2.039-2.886-3.445.131-.63 1.915-1.966 2.492-2.382 2.585-1.863 5.405-1.304 7.692.798 6.597 6.072 12.505 11.955 13.765 15.027.881 2.154.824 4.93-.571 6.848-1.454 1.991-3.888 2.822-5.793 1.891Z" fill="#0A0A0A"/><path fill-rule="evenodd" clip-rule="evenodd" d="m161.448 161.23 4.542-5.587s5.157-.463 3.35 2.819c-1.807 3.281-6.461 3.762-7.892 2.768Z" fill="url(#r)"/><path d="M94.433 91.078c-2.177-1.037-4.892-.713-6.785.69-3.767 2.794-12.42 11.154-13.318 29.417-1.164 23.424 39.389 17.314 39.389 17.314l2.317-5.089s-28.967-1.018-28.967-11.202c0-7.174 8.412-15.51 12.15-18.857 1.431-1.283 2.056-3.14 1.534-4.877-.893-2.962-3.412-6.012-6.32-7.396Z" fill="url(#s)"/><path d="M110.723 133.41s4.155-2.041 7.631-3.059c3.475-1.018 4.635 0 4.635 0s-3.477 1.018-4.635 2.036c-1.159 1.019 5.546 1.027 7.987 1.023 2.44-.004 2.871 5.005.339 6.574-2.533 1.569-9.485 4.624-16.437-1.486l.48-5.088Z" fill="url(#t)"/><path d="M236.994 128.851c1.069 4.354 3.638 9.217 5.561 12.465-6.519 1.596-14.279 2.372-23.503 2.059-1.755-.059-3.036-.22-4.564.658l-2.938 2.025-2.204-11.859s15.26 1.336 27.648-5.348Z" fill="url(#u)"/><path d="M212.334 145.518c-2.985 2.418-10.132 1.685-13.851.662-4.516-1.052-5.397-3.692-4.836-6.963a35.071 35.071 0 0 0 11.608-6.457c-.718-3.521-2.189-4.618-3.933-4.831 5.7 1.443 10.196 3.609 12.667 6.991l-1.655 10.598Z" fill="url(#v)"/><path d="M175.857 44.544c-.258-4.947-3.559-9.103-7.668-9.63-3.268-.418-6.176 1.464-7.724 4.51-1.552-3.193-4.487-5.374-7.817-5.281-4.235.117-7.675 4.035-7.946 9.079-.179 3.33 1.007 6.392 2.954 8.456l11.956 9.92a1.334 1.334 0 0 0 1.706.05l11.709-9.05c1.868-1.883 3.002-4.786 2.83-8.054Z" fill="#C32F27"/></g><defs><linearGradient id="b" x1="45114.6" y1="31429.6" x2="44403.4" y2="35773" gradientUnits="userSpaceOnUse"><stop stop-color="#FFC444"/><stop offset="1" stop-color="#F36F56"/></linearGradient><linearGradient id="c" x1="107991" y1="-49788.8" x2="113625" y2="-41265.1" gradientUnits="userSpaceOnUse"><stop stop-color="#FFC444"/><stop offset="1" stop-color="#F36F56"/></linearGradient><linearGradient id="d" x1="165.147" y1="78.005" x2="145.123" y2="270.45" gradientUnits="userSpaceOnUse"><stop stop-color="#FEBBBA"/><stop offset="1" stop-color="#FF928E"/></linearGradient><linearGradient id="e" x1="50195.6" y1="17799.9" x2="45658.5" y2="49184.8" gradientUnits="userSpaceOnUse"><stop stop-color="#FEBBBA"/><stop offset="1" stop-color="#FF928E"/></linearGradient><linearGradient id="f" x1="101582" y1="-59793.1" x2="12018.1" y2="298091" gradientUnits="userSpaceOnUse"><stop stop-color="#FEBBBA"/><stop offset="1" stop-color="#FF928E"/></linearGradient><linearGradient id="g" x1="118574" y1="290206" x2="54270.2" y2="93024.1" gradientUnits="userSpaceOnUse"><stop stop-color="#FEBBBA"/><stop offset="1" stop-color="#FF928E"/></linearGradient><linearGradient id="h" x1="240113" y1="282546" x2="211195" y2="77347.4" gradientUnits="userSpaceOnUse"><stop stop-color="#FEBBBA"/><stop offset="1" stop-color="#FF928E"/></linearGradient><linearGradient id="i" x1="91014" y1="23917.5" x2="89368.9" y2="16202.6" gradientUnits="userSpaceOnUse"><stop stop-color="#FEBBBA"/><stop offset="1" stop-color="#FF928E"/></linearGradient><linearGradient id="j" x1="77492.5" y1="26063.1" x2="77074" y2="6462.63" gradientUnits="userSpaceOnUse"><stop stop-color="#FEBBBA"/><stop offset="1" stop-color="#FF928E"/></linearGradient><linearGradient id="k" x1="18283" y1="4916.56" x2="17388.8" y2="-525.42" gradientUnits="userSpaceOnUse"><stop stop-color="#FEBBBA"/><stop offset="1" stop-color="#FF928E"/></linearGradient><linearGradient id="l" x1="197.617" y1="135.136" x2="174.725" y2="194.03" gradientUnits="userSpaceOnUse"><stop stop-color="#A22B25"/><stop offset="1" stop-color="#C0423C"/></linearGradient><linearGradient id="m" x1="8295.58" y1="56445.5" x2="-2738.45" y2="73534.7" gradientUnits="userSpaceOnUse"><stop stop-color="#A22B25"/><stop offset="1" stop-color="#C0423C"/></linearGradient><linearGradient id="n" x1="4567.68" y1="139315" x2="-4325.35" y2="102263" gradientUnits="userSpaceOnUse"><stop stop-color="#A22B25"/><stop offset="1" stop-color="#C0423C"/></linearGradient><linearGradient id="o" x1="6878.26" y1="139789" x2="-2014.68" y2="102737" gradientUnits="userSpaceOnUse"><stop stop-color="#A22B25"/><stop offset="1" stop-color="#C0423C"/></linearGradient><linearGradient id="p" x1="-1964.02" y1="20823.3" x2="-3966.45" y2="14526" gradientUnits="userSpaceOnUse"><stop stop-color="#A22B25"/><stop offset="1" stop-color="#C0423C"/></linearGradient><linearGradient id="q" x1="-46630.5" y1="-237323" x2="-46809.4" y2="-224875" gradientUnits="userSpaceOnUse"><stop stop-color="#A22B25"/><stop offset="1" stop-color="#C0423C"/></linearGradient><linearGradient id="r" x1="-17432.3" y1="-53845.9" x2="-17832.9" y2="-51211.3" gradientUnits="userSpaceOnUse"><stop stop-color="#A22B25"/><stop offset="1" stop-color="#C0423C"/></linearGradient><linearGradient id="s" x1="58598" y1="35584.6" x2="82056.8" y2="63536.6" gradientUnits="userSpaceOnUse"><stop stop-color="#FEBBBA"/><stop offset="1" stop-color="#FF928E"/></linearGradient><linearGradient id="t" x1="26828.4" y1="7895.53" x2="31782.2" y2="18106.8" gradientUnits="userSpaceOnUse"><stop stop-color="#FEBBBA"/><stop offset="1" stop-color="#FF928E"/></linearGradient><linearGradient id="u" x1="62692.6" y1="22800.9" x2="69551.4" y2="14598" gradientUnits="userSpaceOnUse"><stop stop-color="#FFC444"/><stop offset="1" stop-color="#F36F56"/></linearGradient><linearGradient id="v" x1="37546.4" y1="23618.3" x2="44704.4" y2="18886.4" gradientUnits="userSpaceOnUse"><stop stop-color="#FFC444"/><stop offset="1" stop-color="#F36F56"/></linearGradient><clipPath id="a"><path fill="#fff" transform="translate(20 20)" d="M0 0h271v278.5H0z"/></clipPath></defs></svg>